PathFileType	4	(X/Y/Z)	./resultDataOpenSim/trcMotMarkerGrf/sub09/qtm-14-07.trc
DataRate	CameraRate	NumFrames	NumMarkers	Units	OrigDataRate	OrigDataStartFrame	OrigNumFrames
250.000000	250.000000	14	24	m	250.000000	304	485
Frame#	Time	L.Toe.Tip			R.Toe.Tip			L.Ankle.Lat			R.Ankle.Lat			L.Ankle.Med			R.Ankle.Med			L.Heel			R.Heel			L.Knee.Lat			R.Knee.Lat			L.Knee.Med			R.Knee.Med			L.Thigh.Upper			R.Thigh.Upper			L.ASIS			R.ASIS			V.Sacral			L.Acromium			R.Acromium			C7			L.Elbow			R.Elbow			L.Wrist.Lat			R.Wrist.Lat
		X1	Y1	Z1	X2	Y2	Z2	X3	Y3	Z3	X4	Y4	Z4	X5	Y5	Z5	X6	Y6	Z6	X7	Y7	Z7	X8	Y8	Z8	X9	Y9	Z9	X10	Y10	Z10	X11	Y11	Z11	X12	Y12	Z12	X13	Y13	Z13	X14	Y14	Z14	X15	Y15	Z15	X16	Y16	Z16	X17	Y17	Z17	X18	Y18	Z18	X19	Y19	Z19	X20	Y20	Z20	X21	Y21	Z21	X22	Y22	Z22	X23	Y23	Z23	X24	Y24	Z24

304	1.212	0.26305715	-0.013906343	0.010371637	1.172462	0.041839437	0.054358682	0.23058514	0.1337548	-0.066002902	1.0275055	0.052384617	0.099756945	0.2660211	0.13156505	0.025612421	1.0251465	0.092777307	0.0082971824	0.17412708	0.17569854	-0.019534941	0.95467586	0.031826561	0.056612854	0.56126485	0.39535866	-0.11496657	0.99612677	0.50619936	0.16110625	0.57443408	0.37708527	0.0092064809	0.97676883	0.49274538	0.036359882	0.68120808	0.78499285	-0.12489431	0.74533336	0.82196423	0.2413287	0.77373417	0.86984083	-0.087652626	0.80757301	0.90296999	0.15445302	0.63232647	0.93687415	0.046803504	0.79566097	1.3456311	-0.11339488	0.75570812	1.3413766	0.21344784	0.69968876	1.3866476	0.042692751	0.74741678	0.96725869	-0.18725855	0.59692937	1.0266739	0.29479039	1.0164777	0.92769473	-0.14232809	0.66521508	0.76994696	0.36044167
305	1.216	0.26674906	-0.011043052	0.0091446961	1.1725817	0.041664846	0.054070875	0.23960851	0.13812341	-0.066995054	1.0278777	0.052321421	0.099612579	0.27476085	0.13512311	0.024853032	1.0254391	0.092575189	0.0079616028	0.18404918	0.18185551	-0.020579662	0.95470445	0.031850673	0.056518501	0.57357309	0.39419719	-0.1161793	1.0012168	0.50626967	0.16048255	0.58730712	0.37530785	0.0078179066	0.98137775	0.49268032	0.035882243	0.68839445	0.78504123	-0.12428283	0.75217845	0.82327084	0.24184092	0.78050308	0.8706015	-0.087054698	0.81395735	0.90411116	0.15502919	0.63897368	0.93789304	0.047716238	0.80283897	1.3464679	-0.11311315	0.76239125	1.3422936	0.21348892	0.70648435	1.3876967	0.042731548	0.75359897	0.96848857	-0.18742492	0.60462655	1.0269304	0.2949443	1.0222124	0.92632742	-0.14218692	0.67424419	0.77042511	0.36023679
306	1.22	0.27064296	-0.0081781192	0.007779886	1.1726253	0.041541739	0.053831058	0.24891387	0.14250546	-0.06788882	1.0280422	0.052316009	0.099553393	0.28377588	0.13872739	0.024197978	1.0256045	0.092394112	0.0077383751	0.19431185	0.18805635	-0.021533844	0.95468487	0.031864557	0.056493257	0.58613412	0.39311285	-0.11728936	1.0061168	0.50642168	0.15990841	0.60019514	0.3738911	0.0065738601	0.98564439	0.49261462	0.035479901	0.695417	0.78518695	-0.12373624	0.75897482	0.8245743	0.24232562	0.78723604	0.87143455	-0.086452622	0.82006201	0.9050653	0.15550492	0.64554391	0.93899218	0.048187666	0.80990726	1.3473579	-0.11285557	0.76903901	1.3432888	0.21352155	0.71322541	1.3888053	0.042787676	0.75972499	0.9697748	-0.18759682	0.6122816	1.0272515	0.29510818	1.0278498	0.9249588	-0.14206673	0.68334548	0.77096639	0.35996062
307	1.224	0.2747987	-0.005285825	0.006282225	1.1726318	0.041454511	0.053671321	0.25843602	0.14690964	-0.06871668	1.0280655	0.052346256	0.099564135	0.29304165	0.14239727	0.023617847	1.0256691	0.092265516	0.0076173913	0.20494967	0.19430672	-0.022368972	0.95464283	0.031871075	0.056518917	0.59889873	0.39213424	-0.11832868	1.0108345	0.50662446	0.15943962	0.6130378	0.37287082	0.0055085057	0.98965362	0.4926017	0.035148847	0.70223967	0.78544756	-0.12322601	0.76570345	0.82587862	0.24277381	0.79393159	0.87233977	-0.085848128	0.82605341	0.90598794	0.15595571	0.6520365	0.94019085	0.048544064	0.81684472	1.3483063	-0.11263766	0.77566431	1.3443612	0.21355321	0.7198802	1.3899882	0.042840497	0.76579002	0.97111291	-0.18776749	0.61994338	1.027645	0.29530649	1.0333894	0.92358771	-0.14196705	0.69252968	0.77157801	0.35961311
308	1.228	0.27930018	-0.0022107462	0.004661604	1.1726275	0.041385686	0.053601074	0.26812891	0.15136481	-0.069499435	1.0280477	0.052374848	0.099605429	0.30254617	0.14615507	0.023074189	1.0256875	0.092201874	0.00757413	0.21599237	0.20062214	-0.023043204	0.95460072	0.031870707	0.056573159	0.61182313	0.39127036	-0.11929945	1.0154083	0.5068689	0.1590984	0.62593723	0.37221683	0.0046039079	0.99348998	0.49267876	0.034892892	0.70884495	0.78583283	-0.12272221	0.77233545	0.82719374	0.24317694	0.80058827	0.87331695	-0.085242942	0.83203366	0.90700177	0.15642571	0.65843398	0.94151293	0.048976592	0.82363948	1.3493236	-0.11247278	0.78226289	1.3455146	0.2135854	0.72644644	1.3912596	0.04287909	0.77178752	0.97249625	-0.18792238	0.62764074	1.0281242	0.29555433	1.0388229	0.92221001	-0.14189161	0.70175994	0.77228048	0.35919301
309	1.232	0.28422944	0.001231973	0.0029166693	1.172625	0.041326524	0.053581343	0.27797543	0.15591758	-0.070221699	1.0280627	0.052375457	0.099624064	0.31229397	0.15001801	0.022521302	1.0257089	0.092196575	0.0075766435	0.22743638	0.2070058	-0.023534394	0.9545708	0.031866405	0.056635486	0.62486518	0.39052827	-0.12017336	1.0198614	0.5071447	0.1588822	0.63897725	0.37183561	0.0038508662	0.99720541	0.492851	0.034710095	0.71525448	0.78635458	-0.12222988	0.77883541	0.82853628	0.24353284	0.80720463	0.87436587	-0.084638796	0.83801799	0.90814698	0.15691109	0.66471569	0.94297338	0.049500546	0.83029728	1.3504179	-0.11236187	0.78882952	1.3467543	0.21361525	0.73294687	1.3926246	0.042914823	0.77771332	0.97391822	-0.18804313	0.6352951	1.0286893	0.29581205	1.0441405	0.92082877	-0.14184795	0.71098449	0.77308823	0.35869444
310	1.236	0.28965373	0.0051430341	0.0010295912	1.1726281	0.041276844	0.053565821	0.28799192	0.16060656	-0.070856326	1.0281117	0.052359657	0.099591434	0.32229571	0.15398067	0.021934277	1.0257619	0.092233938	0.0075944976	0.23923316	0.21342882	-0.023862881	0.95455425	0.031864447	0.056685876	0.63798605	0.38992611	-0.12091612	1.0241401	0.50741902	0.15875053	0.65211373	0.37164481	0.0032556687	1.0008192	0.49309372	0.034585351	0.72151315	0.78702683	-0.12176425	0.78516532	0.8299248	0.24385006	0.81377923	0.87548631	-0.084037422	0.84398272	0.90940865	0.15738531	0.6708657	0.94458468	0.050032245	0.83682832	1.3515939	-0.11230153	0.7953645	1.3480816	0.21363945	0.73940147	1.3940744	0.042963536	0.78356657	0.97539019	-0.18811705	0.6427477	1.0293228	0.29599576	1.0493396	0.91945042	-0.14184348	0.72017404	0.77399998	0.35811218
311	1.24	0.29562536	0.0094971693	-0.0010391982	1.1726339	0.041236389	0.053538576	0.29823779	0.16545694	-0.071433589	1.0281443	0.052362296	0.099515978	0.33255524	0.15801153	0.021319724	1.0258546	0.092295399	0.0076062662	0.2513099	0.21983557	-0.024087584	0.95454433	0.031868391	0.056706956	0.65115662	0.3894862	-0.12150658	1.028141	0.50764517	0.15864673	0.66521022	0.37163086	0.0028188337	1.004328	0.49336792	0.034505825	0.72766019	0.78784978	-0.1213207	0.79128765	0.83137412	0.2441448	0.82031062	0.87667801	-0.083440556	0.84990364	0.910758	0.15782229	0.67688397	0.9463543	0.050479551	0.84323287	1.352855	-0.11229365	0.80186681	1.3494943	0.21365352	0.74580843	1.3955992	0.043022939	0.78935056	0.97693447	-0.18813844	0.64995922	1.0300167	0.29608144	1.0544215	0.91807604	-0.14188222	0.72936014	0.77502081	0.3574659
312	1.244	0.30216183	0.014172866	-0.0033349033	1.1726354	0.041201384	0.053508921	0.30880455	0.17049141	-0.072055178	1.0281291	0.052396172	0.099419693	0.34306628	0.16207487	0.020691253	1.0259798	0.092362762	0.0076039617	0.26360601	0.22616979	-0.024283543	0.95453152	0.031874761	0.056691525	0.66435076	0.3892293	-0.12193276	1.0318045	0.50778472	0.15855105	0.67812914	0.37181224	0.0025397512	1.0077125	0.49363781	0.034478853	0.73371501	0.78880259	-0.12088121	0.79717009	0.83289166	0.24443216	0.82679735	0.87794075	-0.082849931	0.85576836	0.91218029	0.15820342	0.6827952	0.94826069	0.050800866	0.8495049	1.3542042	-0.11233963	0.80833257	1.3509919	0.21365165	0.75215183	1.3972087	0.043075407	0.79507181	0.97856318	-0.18810843	0.65710255	1.0307953	0.29615985	1.0593864	0.91670175	-0.14196503	0.73864601	0.7761877	0.35681726
313	1.248	0.30921045	0.019024965	-0.005849334	1.1726243	0.041169246	0.053489086	0.31974906	0.17570376	-0.072799674	1.0280847	0.052435568	0.09931072	0.35381578	0.16614705	0.020054674	1.0261216	0.092423947	0.0075925496	0.27609762	0.23239568	-0.02451862	0.95450791	0.031877408	0.056646177	0.67753943	0.38918387	-0.12218842	1.0351652	0.50782238	0.15849615	0.69083025	0.37218555	0.0024144382	1.010947	0.49388168	0.034529372	0.73968509	0.78985525	-0.12044921	0.80279484	0.83447693	0.24471795	0.83323798	0.87927428	-0.082267283	0.86157575	0.91368121	0.15851946	0.68862113	0.95023892	0.050980645	0.8556427	1.3556427	-0.11243238	0.81475985	1.3525753	0.21363088	0.75841857	1.3989165	0.043104852	0.80073265	0.98027614	-0.18802952	0.66435051	1.031693	0.29632815	1.0642326	0.9153273	-0.14209054	0.74812996	0.77754838	0.35622987
314	1.252	0.31665474	0.023961287	-0.0084757563	1.1725939	0.041142579	0.053484647	0.33107192	0.18103895	-0.0736549	1.0280405	0.052451867	0.099182951	0.36478826	0.17021373	0.019417057	1.0262631	0.092477742	0.0075829891	0.288798	0.23850049	-0.024841687	0.95446805	0.031874712	0.056584098	0.69070157	0.38938938	-0.12229108	1.0383175	0.50775872	0.15853446	0.70343643	0.37273244	0.0024037352	1.0140207	0.49409052	0.034678228	0.74557963	0.79098447	-0.12007646	0.80816927	0.83612483	0.24499691	0.83963107	0.88067836	-0.081694344	0.86733091	0.91527278	0.15877243	0.69432029	0.95220094	0.050943897	0.86165234	1.3571705	-0.11256181	0.82114883	1.354246	0.21359319	0.76460604	1.4007134	0.043105085	0.80632631	0.98206006	-0.18789458	0.67164349	1.0327143	0.29655857	1.0689568	0.91396067	-0.14225777	0.75774531	0.77909176	0.3556748
315	1.256	0.32437955	0.028981033	-0.011036609	1.1725407	0.041126202	0.053496814	0.34277237	0.1864212	-0.074568555	1.0279892	0.05245113	0.099036908	0.37596249	0.17427327	0.018788558	1.0263924	0.092531364	0.0075829564	0.30173208	0.24448689	-0.025279868	0.95440794	0.031870789	0.056512133	0.70383374	0.38987912	-0.12229667	1.0413543	0.50759507	0.15870439	0.7161737	0.37344924	0.0024375332	1.0169507	0.49426037	0.034924226	0.75141038	0.79219038	-0.11983656	0.81332994	0.83783088	0.24526016	0.84597518	0.88215276	-0.08113285	0.87303796	0.9169563	0.15897207	0.69978099	0.9540864	0.050575212	0.86754474	1.3587875	-0.11272374	0.82749725	1.3560042	0.21354145	0.77071885	1.4025733	0.043081223	0.81183915	0.98388754	-0.18769096	0.67878692	1.0338329	0.29674017	1.0735532	0.91261418	-0.14246888	0.76722926	0.78072198	0.35500968
316	1.26	0.33233764	0.034139273	-0.013362045	1.1724657	0.041121592	0.053525556	0.35484969	0.19178301	-0.075514867	1.0278898	0.052466747	0.098894629	0.38730125	0.17834947	0.018170754	1.0265044	0.092592775	0.0075933716	0.3148946	0.25036521	-0.025841582	0.95432647	0.03187038	0.05642688	0.71694453	0.39065827	-0.12227512	1.0443331	0.50733997	0.15902796	0.7291315	0.37434502	0.0024994756	1.0197662	0.49439018	0.035248722	0.75718438	0.79350962	-0.11974076	0.81833401	0.83959195	0.24550346	0.85226885	0.88369724	-0.080584534	0.87869666	0.91871908	0.15912986	0.70494007	0.95591789	0.049940071	0.87333005	1.3604895	-0.11291747	0.83379921	1.3578478	0.21347555	0.77676414	1.4044793	0.043049505	0.81725463	0.98573618	-0.18741673	0.68572876	1.0350261	0.29683033	1.0780102	0.91129861	-0.14272409	0.77635281	0.78234129	0.35410678
317	1.264	0.34056031	0.039453557	-0.015371644	1.1723728	0.041125618	0.053570913	0.36724644	0.19706767	-0.076490918	1.0277	0.05252756	0.098798223	0.39875406	0.18248602	0.017552616	1.0265985	0.09266442	0.0076125141	0.3282188	0.25614515	-0.026529126	0.95422899	0.031873156	0.056324857	0.73004743	0.39169801	-0.12226146	1.0472592	0.50702896	0.1595075	0.74215442	0.37542805	0.0026504742	1.0224856	0.4944842	0.035631522	0.76290201	0.79499745	-0.11967473	0.82324007	0.84140169	0.24572465	0.85851064	0.88531157	-0.08005113	0.88430524	0.9205409	0.15925712	0.70990372	0.9578004	0.049393429	0.87901288	1.3622684	-0.11314026	0.84005	1.3597694	0.21339361	0.78274708	1.4064342	0.043026059	0.82256096	0.9876025	-0.18708056	0.69259297	1.0362944	0.29688558	1.082314	0.91002109	-0.14301411	0.78511874	0.78393623	0.35296564
